<svg xmlns="http://www.w3.org/2000/svg" width="100%" viewBox="0 0 1200 860" role="img" font-family="Segoe UI, Arial, Helvetica, sans-serif">
<title>Use-Case Diagram — DEICMS</title><desc>Use-case diagram with the four investigator roles and the system use cases, including the new two-factor authentication (2FA), admin-only account management, case-member management and signed export.</desc>
<defs><marker id="arrow" viewBox="0 0 10 10" refX="9" refY="5" markerWidth="7" markerHeight="7" orient="auto-start-reverse"><path d="M1 1L9 5L1 9" fill="none" stroke="#6B6B66" stroke-width="1.4" stroke-linecap="round" stroke-linejoin="round"/></marker><marker id="tarrow" viewBox="0 0 10 10" refX="9" refY="5" markerWidth="7" markerHeight="7" orient="auto-start-reverse"><path d="M1 1L9 5L1 9" fill="none" stroke="#1D9E75" stroke-width="1.4" stroke-linecap="round" stroke-linejoin="round"/></marker></defs>
<rect x="0" y="0" width="1200" height="860" fill="#FFFFFF"/>
<text x="40" y="34" font-size="18" fill="#3C3489" text-anchor="start" font-weight="700" dominant-baseline="central">Use-Case Diagram — DEICMS</text>
<text x="40" y="56" font-size="11" fill="#6B6B66" text-anchor="start" font-weight="400" dominant-baseline="central">Green use cases were added for the new security features. Higher roles inherit the capabilities of lower roles.</text>
<circle cx="90" cy="150" r="9" fill="none" stroke="#3C3489" stroke-width="1.6"/>
<line x1="90" y1="159" x2="90" y2="180" stroke="#3C3489" stroke-width="1.6"/>
<line x1="78" y1="167" x2="102" y2="167" stroke="#3C3489" stroke-width="1.6"/>
<line x1="90" y1="180" x2="80" y2="195" stroke="#3C3489" stroke-width="1.6"/>
<line x1="90" y1="180" x2="100" y2="195" stroke="#3C3489" stroke-width="1.6"/>
<text x="90" y="208" font-size="11" fill="#2D3B3A" text-anchor="middle" font-weight="700" dominant-baseline="central">Admin</text>
<circle cx="90" cy="330" r="9" fill="none" stroke="#3C3489" stroke-width="1.6"/>
<line x1="90" y1="339" x2="90" y2="360" stroke="#3C3489" stroke-width="1.6"/>
<line x1="78" y1="347" x2="102" y2="347" stroke="#3C3489" stroke-width="1.6"/>
<line x1="90" y1="360" x2="80" y2="375" stroke="#3C3489" stroke-width="1.6"/>
<line x1="90" y1="360" x2="100" y2="375" stroke="#3C3489" stroke-width="1.6"/>
<text x="90" y="388" font-size="11" fill="#2D3B3A" text-anchor="middle" font-weight="700" dominant-baseline="central">Lead Investig.</text>
<circle cx="90" cy="510" r="9" fill="none" stroke="#3C3489" stroke-width="1.6"/>
<line x1="90" y1="519" x2="90" y2="540" stroke="#3C3489" stroke-width="1.6"/>
<line x1="78" y1="527" x2="102" y2="527" stroke="#3C3489" stroke-width="1.6"/>
<line x1="90" y1="540" x2="80" y2="555" stroke="#3C3489" stroke-width="1.6"/>
<line x1="90" y1="540" x2="100" y2="555" stroke="#3C3489" stroke-width="1.6"/>
<text x="90" y="568" font-size="11" fill="#2D3B3A" text-anchor="middle" font-weight="700" dominant-baseline="central">Analyst</text>
<circle cx="90" cy="690" r="9" fill="none" stroke="#3C3489" stroke-width="1.6"/>
<line x1="90" y1="699" x2="90" y2="720" stroke="#3C3489" stroke-width="1.6"/>
<line x1="78" y1="707" x2="102" y2="707" stroke="#3C3489" stroke-width="1.6"/>
<line x1="90" y1="720" x2="80" y2="735" stroke="#3C3489" stroke-width="1.6"/>
<line x1="90" y1="720" x2="100" y2="735" stroke="#3C3489" stroke-width="1.6"/>
<text x="90" y="748" font-size="11" fill="#2D3B3A" text-anchor="middle" font-weight="700" dominant-baseline="central">Read-Only</text>
<circle cx="1120" cy="170" r="9" fill="none" stroke="#3C3489" stroke-width="1.6"/>
<line x1="1120" y1="179" x2="1120" y2="200" stroke="#3C3489" stroke-width="1.6"/>
<line x1="1108" y1="187" x2="1132" y2="187" stroke="#3C3489" stroke-width="1.6"/>
<line x1="1120" y1="200" x2="1110" y2="215" stroke="#3C3489" stroke-width="1.6"/>
<line x1="1120" y1="200" x2="1130" y2="215" stroke="#3C3489" stroke-width="1.6"/>
<text x="1120" y="228" font-size="11" fill="#2D3B3A" text-anchor="middle" font-weight="700" dominant-baseline="central">Authenticator</text>
<text x="1120" y="241" font-size="8.5" fill="#6B6B66" text-anchor="middle" font-weight="400" dominant-baseline="central">App (TOTP)</text>
<rect x="220" y="90" width="820" height="740" fill="#FFFFFF" rx="12" stroke="#AFA9EC" stroke-width="1.4"/>
<text x="630" y="108" font-size="13" fill="#3C3489" text-anchor="middle" font-weight="700" dominant-baseline="central">DEICMS</text>
<ellipse cx="420" cy="130" rx="98" ry="26" fill="#F4F3FB" stroke="#AFA9EC" stroke-width="1.2"/>
<text x="420" y="130" font-size="10.5" fill="#2D3B3A" text-anchor="middle" font-weight="600" dominant-baseline="central">Log in</text>
<ellipse cx="420" cy="195" rx="98" ry="26" fill="#E8F6F0" stroke="#1D9E75" stroke-width="1.2"/>
<text x="420" y="195" font-size="10.5" fill="#1D9E75" text-anchor="middle" font-weight="600" dominant-baseline="central">Enrol in 2FA</text>
<ellipse cx="420" cy="265" rx="98" ry="26" fill="#E8F6F0" stroke="#1D9E75" stroke-width="1.2"/>
<text x="420" y="265" font-size="10.5" fill="#1D9E75" text-anchor="middle" font-weight="600" dominant-baseline="central">Manage user accounts</text>
<ellipse cx="420" cy="335" rx="98" ry="26" fill="#F4F3FB" stroke="#AFA9EC" stroke-width="1.2"/>
<text x="420" y="335" font-size="10.5" fill="#2D3B3A" text-anchor="middle" font-weight="600" dominant-baseline="central">Create &amp; manage cases</text>
<ellipse cx="420" cy="405" rx="98" ry="26" fill="#E8F6F0" stroke="#1D9E75" stroke-width="1.2"/>
<text x="420" y="405" font-size="10.5" fill="#1D9E75" text-anchor="middle" font-weight="600" dominant-baseline="central">Manage case members</text>
<ellipse cx="420" cy="475" rx="98" ry="26" fill="#F4F3FB" stroke="#AFA9EC" stroke-width="1.2"/>
<text x="420" y="475" font-size="10.5" fill="#2D3B3A" text-anchor="middle" font-weight="600" dominant-baseline="central">Upload evidence</text>
<ellipse cx="420" cy="545" rx="98" ry="26" fill="#F4F3FB" stroke="#AFA9EC" stroke-width="1.2"/>
<text x="420" y="545" font-size="10.5" fill="#2D3B3A" text-anchor="middle" font-weight="600" dominant-baseline="central">Transfer custody</text>
<ellipse cx="420" cy="615" rx="98" ry="26" fill="#F4F3FB" stroke="#AFA9EC" stroke-width="1.2"/>
<text x="420" y="615" font-size="10.5" fill="#2D3B3A" text-anchor="middle" font-weight="600" dominant-baseline="central">Change lifecycle state</text>
<ellipse cx="420" cy="685" rx="98" ry="26" fill="#F4F3FB" stroke="#AFA9EC" stroke-width="1.2"/>
<text x="420" y="685" font-size="10.5" fill="#2D3B3A" text-anchor="middle" font-weight="600" dominant-baseline="central">View audit trail</text>
<ellipse cx="830" cy="195" rx="98" ry="26" fill="#F4F3FB" stroke="#AFA9EC" stroke-width="1.2"/>
<text x="830" y="195" font-size="10.5" fill="#2D3B3A" text-anchor="middle" font-weight="600" dominant-baseline="central">Verify integrity</text>
<ellipse cx="830" cy="265" rx="98" ry="26" fill="#F4F3FB" stroke="#AFA9EC" stroke-width="1.2"/>
<text x="830" y="265" font-size="10.5" fill="#2D3B3A" text-anchor="middle" font-weight="600" dominant-baseline="central">Reconstruct chain</text>
<ellipse cx="830" cy="335" rx="98" ry="26" fill="#F4F3FB" stroke="#AFA9EC" stroke-width="1.2"/>
<text x="830" y="335" font-size="10.5" fill="#2D3B3A" text-anchor="middle" font-weight="600" dominant-baseline="central">View risk &amp; anomaly</text>
<ellipse cx="830" cy="405" rx="98" ry="26" fill="#E8F6F0" stroke="#1D9E75" stroke-width="1.2"/>
<text x="830" y="405" font-size="10.5" fill="#1D9E75" text-anchor="middle" font-weight="600" dominant-baseline="central">Export signed package</text>
<ellipse cx="830" cy="475" rx="98" ry="26" fill="#F4F3FB" stroke="#AFA9EC" stroke-width="1.2"/>
<text x="830" y="475" font-size="10.5" fill="#2D3B3A" text-anchor="middle" font-weight="600" dominant-baseline="central">Use AI assistant</text>
<ellipse cx="830" cy="545" rx="98" ry="26" fill="#F4F3FB" stroke="#AFA9EC" stroke-width="1.2"/>
<text x="830" y="545" font-size="10.5" fill="#2D3B3A" text-anchor="middle" font-weight="600" dominant-baseline="central">View cases &amp; evidence</text>
<ellipse cx="640" cy="130" rx="80" ry="20" fill="#E8F6F0" stroke="#1D9E75" stroke-width="1.2"/>
<text x="640" y="130" font-size="10.5" fill="#1D9E75" text-anchor="middle" font-weight="600" dominant-baseline="central">Verify TOTP code</text>
<line x1="518" y1="130" x2="560" y2="130" stroke="#1D9E75" stroke-width="1.2" stroke-dasharray="5 4"/>
<text x="539.0" y="124.0" font-size="8.5" fill="#1D9E75" text-anchor="middle" font-weight="700" dominant-baseline="central">«include»</text>
<ellipse cx="640" cy="475" rx="80" ry="20" fill="#E8F6F0" stroke="#1D9E75" stroke-width="1.2"/>
<text x="640" y="475" font-size="10.5" fill="#1D9E75" text-anchor="middle" font-weight="600" dominant-baseline="central">Validate file type</text>
<line x1="518" y1="475" x2="560" y2="475" stroke="#1D9E75" stroke-width="1.2" stroke-dasharray="5 4"/>
<text x="539.0" y="469.0" font-size="8.5" fill="#1D9E75" text-anchor="middle" font-weight="700" dominant-baseline="central">«include»</text>
<ellipse cx="640" cy="545" rx="80" ry="20" fill="#F4F3FB" stroke="#AFA9EC" stroke-width="1.2"/>
<text x="640" y="545" font-size="10.5" fill="#2D3B3A" text-anchor="middle" font-weight="600" dominant-baseline="central">Sign event (Ed25519)</text>
<line x1="518" y1="545" x2="560" y2="545" stroke="#6B6B66" stroke-width="1.2" stroke-dasharray="5 4"/>
<text x="539" y="539" font-size="8.5" fill="#6B6B66" text-anchor="middle" font-weight="700" dominant-baseline="central">«include»</text>
<line x1="1040" y1="160" x2="720" y2="132" stroke="#6B6B66" stroke-width="1.2"/>
<line x1="108" y1="150" x2="322" y2="130" stroke="#6B6B66" stroke-width="1.0"/>
<line x1="108" y1="150" x2="322" y2="265" stroke="#6B6B66" stroke-width="1.0"/>
<line x1="108" y1="150" x2="322" y2="335" stroke="#6B6B66" stroke-width="1.0"/>
<line x1="108" y1="150" x2="322" y2="405" stroke="#6B6B66" stroke-width="1.0"/>
<line x1="108" y1="330" x2="322" y2="335" stroke="#6B6B66" stroke-width="1.0"/>
<line x1="108" y1="330" x2="322" y2="405" stroke="#6B6B66" stroke-width="1.0"/>
<line x1="108" y1="330" x2="322" y2="475" stroke="#6B6B66" stroke-width="1.0"/>
<line x1="108" y1="330" x2="322" y2="545" stroke="#6B6B66" stroke-width="1.0"/>
<line x1="108" y1="330" x2="322" y2="615" stroke="#6B6B66" stroke-width="1.0"/>
<line x1="108" y1="330" x2="732" y2="405" stroke="#6B6B66" stroke-width="1.0"/>
<line x1="108" y1="510" x2="732" y2="195" stroke="#6B6B66" stroke-width="1.0"/>
<line x1="108" y1="510" x2="732" y2="265" stroke="#6B6B66" stroke-width="1.0"/>
<line x1="108" y1="510" x2="732" y2="335" stroke="#6B6B66" stroke-width="1.0"/>
<line x1="108" y1="510" x2="732" y2="475" stroke="#6B6B66" stroke-width="1.0"/>
<line x1="108" y1="510" x2="732" y2="545" stroke="#6B6B66" stroke-width="1.0"/>
<line x1="108" y1="690" x2="322" y2="685" stroke="#6B6B66" stroke-width="1.0"/>
<line x1="108" y1="690" x2="732" y2="545" stroke="#6B6B66" stroke-width="1.0"/>
<line x1="108" y1="150" x2="322" y2="130" stroke="#C9C5E6" stroke-width="0.8"/>
<line x1="108" y1="330" x2="322" y2="130" stroke="#C9C5E6" stroke-width="0.8"/>
<line x1="108" y1="510" x2="322" y2="130" stroke="#C9C5E6" stroke-width="0.8"/>
<line x1="108" y1="690" x2="322" y2="130" stroke="#C9C5E6" stroke-width="0.8"/>
<line x1="108" y1="150" x2="322" y2="195" stroke="#C9C5E6" stroke-width="0.8"/>
<rect x="240" y="798" width="15" height="12" fill="#E8F6F0" rx="2" stroke="#1D9E75" stroke-width="1"/>
<text x="262" y="804" font-size="10" fill="#2D3B3A" text-anchor="start" font-weight="400" dominant-baseline="central">New use case</text>
<text x="380" y="804" font-size="10" fill="#6B6B66" text-anchor="start" font-weight="400" dominant-baseline="central">«include» = required sub-use-case      stick figure = actor (role)</text>
</svg>
